<svg width="18" height="10" viewBox="0 0 18 10" fill="none" xmlns="http://www.w3.org/2000/svg">
<path fill-rule="evenodd" clip-rule="evenodd" d="M11.4681 0.357152C11.8231 -0.0658839 12.4539 -0.120999 12.8769 0.234049L17.6429 4.23405C17.8693 4.42405 18 4.70447 18 5.00002C18 5.29558 17.8693 5.57599 17.6429 5.766L12.8769 9.766C12.4539 10.121 11.8231 10.0659 11.4681 9.64289C11.113 9.21986 11.1681 8.5891 11.5912 8.23405L14.253 6.00002H1C0.447715 6.00002 0 5.55231 0 5.00002C0 4.44774 0.447715 4.00002 1 4.00002H14.253L11.5912 1.766C11.1681 1.41095 11.113 0.780188 11.4681 0.357152Z" fill="#332200"/>
</svg>
